<!-- Generated by readme-aura https://github.com/collectioneur/readme-aura -->
<svg width="800" height="180" viewBox="0 0 800 180" xmlns="http://www.w3.org/2000/svg"><defs><clipPath id="satori_bc-id"><path x="0" y="0" width="800" height="180" d="M16,0 h768 a16,16 0 0 1 16,16 v148 a16,16 0 0 1 -16,16 h-768 a16,16 0 0 1 -16,-16 v-148 a16,16 0 0 1 16,-16"/></clipPath></defs><clipPath id="satori_cp-id"><path x="0" y="0" width="800" height="180" d="M16,0 h768 a16,16 0 0 1 16,16 v148 a16,16 0 0 1 -16,16 h-768 a16,16 0 0 1 -16,-16 v-148 a16,16 0 0 1 16,-16"/></clipPath><mask id="satori_om-id"><rect x="1" y="1" width="798" height="178" fill="#fff"/><path width="800" height="180" fill="none" stroke="#000" stroke-width="2" d="M4.686,4.686 A16,16 0 0 1 16,0 h768 a16,16 0 0 1 16,16 v148 a16,16 0 0 1 -16,16 h-768 a16,16 0 0 1 -16,-16 v-148 A16,16 0 0 1 4.686,4.686"/></mask><path x="0" y="0" width="800" height="180" fill="#06060a" d="M16,0 h768 a16,16 0 0 1 16,16 v148 a16,16 0 0 1 -16,16 h-768 a16,16 0 0 1 -16,-16 v-148 a16,16 0 0 1 16,-16"/><path width="800" height="180" clip-path="url(#satori_bc-id)" fill="none" stroke="rgba(110,80,220,0.15)" stroke-width="2" d="M4.686,4.686 A16,16 0 0 1 16,0 h768 a16,16 0 0 1 16,16 v148 a16,16 0 0 1 -16,16 h-768 a16,16 0 0 1 -16,-16 v-148 A16,16 0 0 1 4.686,4.686"/><clipPath id="satori_cp-id-0" clip-path="url(#satori_cp-id)"><rect x="1" y="1" width="800" height="180"/></clipPath><mask id="satori_om-id-0"><rect x="1" y="1" width="800" height="180" fill="#fff" mask="url(#satori_om-id)"/></mask><svg x="1" y="1" width="800" height="180" preserveAspectRatio="none" clip-path="url(#satori_cp-id-0)" mask="url(#satori_om-id-0)"><defs><radialGradient id="lng1" cx="50%" cy="50%" r="50%"><stop offset="0%" stop-color="rgba(80,40,200,0.4)"></stop><stop offset="100%" stop-color="rgba(80,40,200,0)"></stop></radialGradient><radialGradient id="lng2" cx="50%" cy="50%" r="50%"><stop offset="0%" stop-color="rgba(0,160,220,0.35)"></stop><stop offset="100%" stop-color="rgba(0,160,220,0)"></stop></radialGradient></defs><ellipse id="lang-g1" cx="650" cy="90" rx="180" ry="100" fill="url(#lng1)"></ellipse><ellipse id="lang-g2" cx="150" cy="100" rx="160" ry="90" fill="url(#lng2)"></ellipse><style>

      @keyframes lang-drift-r { 0%, 100% { transform: translate(0, 0); opacity: 0.6; } 50% { transform: translate(30px, -15px); opacity: 1; } }
      @keyframes lang-drift-l { 0%, 100% { transform: translate(0, 0); opacity: 0.55; } 50% { transform: translate(-25px, 12px); opacity: 0.9; } }
      #lang-g1 { animation: lang-drift-r 8s ease-in-out infinite; }
      #lang-g2 { animation: lang-drift-l 7s ease-in-out infinite 0.3s; }
    
</style>
</svg><mask id="satori_om-id-0-0"><rect x="1" y="1" width="0" height="180" fill="#fff" mask="url(#satori_om-id)"/></mask><mask id="satori_om-id-0-0-0"><rect x="1" y="1" width="0" height="180" fill="#fff" mask="url(#satori_om-id)"/></mask><mask id="satori_om-id-0-0-0-0"><rect x="1" y="1" width="0" height="180" fill="#fff" mask="url(#satori_om-id)"/></mask><mask id="satori_om-id-0-0-0-1"><rect x="1" y="1" width="0" height="180" fill="#fff" mask="url(#satori_om-id)"/></mask><mask id="satori_om-id-0-0-1"><rect x="1" y="1" width="0" height="180" fill="#fff" mask="url(#satori_om-id)"/></mask><mask id="satori_om-id-0-0-1-0"><rect x="1" y="1" width="0" height="180" fill="#fff" mask="url(#satori_om-id)"/></mask><mask id="satori_om-id-0-0-1-1"><rect x="1" y="1" width="0" height="180" fill="#fff" mask="url(#satori_om-id)"/></mask><mask id="satori_om-id-0-1"><rect x="1" y="1" width="0" height="180" fill="#fff" mask="url(#satori_om-id)"/></mask><mask id="satori_om-id-0-2"><rect x="1" y="1" width="0" height="180" fill="#fff" mask="url(#satori_om-id)"/></mask><mask id="satori_om-id-1"><rect x="25" y="25" width="750" height="12" fill="#fff" mask="url(#satori_om-id)"/></mask><g mask="url(#satori_om-id)" clip-path="url(#satori_cp-id)"><path fill="rgba(120,200,255,0.7)" d="M27.1 35L25.7 35L25.7 27.7L27.9 27.7L29.1 31.1Q29.2 31.3 29.3 31.7Q29.4 32.0 29.5 32.5L29.5 32.5Q29.6 32.9 29.7 33.3L29.7 33.3Q29.8 32.9 29.8 32.5L29.8 32.5Q29.9 32.1 30.0 31.7Q30.1 31.3 30.2 31.1L30.2 31.1L31.4 27.7L33.7 27.7L33.7 35L32.2 35L32.2 31.6Q32.2 31.3 32.2 31.0Q32.2 30.6 32.2 30.2Q32.2 29.8 32.2 29.4L32.2 29.4Q32.2 29.2 32.2 29.0L32.2 29.0Q32.2 29.2 32.1 29.4L32.1 29.4Q32.0 29.9 31.9 30.3Q31.8 30.7 31.7 31.0Q31.6 31.3 31.5 31.6L31.5 31.6L30.3 35L29.0 35L27.8 31.6Q27.7 31.3 27.6 31.0Q27.5 30.7 27.4 30.3Q27.3 29.9 27.2 29.4L27.2 29.4Q27.1 29.2 27.1 29.1L27.1 29.1Q27.1 29.2 27.1 29.4L27.1 29.4Q27.1 29.8 27.1 30.2Q27.1 30.6 27.1 31.0Q27.1 31.3 27.1 31.6L27.1 31.6L27.1 35ZM41.2 35.1L41.2 35.1Q40.2 35.1 39.4 34.7Q38.7 34.2 38.2 33.4Q37.8 32.5 37.8 31.4L37.8 31.4Q37.8 30.2 38.2 29.3Q38.7 28.5 39.4 28.1Q40.2 27.6 41.2 27.6L41.2 27.6Q42.1 27.6 42.9 28.1Q43.7 28.5 44.1 29.3Q44.6 30.2 44.6 31.4L44.6 31.4Q44.6 32.5 44.1 33.4Q43.7 34.2 42.9 34.7Q42.1 35.1 41.2 35.1ZM41.2 33.8L41.2 33.8Q41.7 33.8 42.2 33.5Q42.6 33.2 42.8 32.7Q43.0 32.1 43.0 31.4L43.0 31.4Q43.0 30.6 42.8 30.0Q42.6 29.5 42.2 29.2Q41.7 29.0 41.2 29.0L41.2 29.0Q40.6 29.0 40.2 29.2Q39.8 29.5 39.5 30.0Q39.3 30.6 39.3 31.4L39.3 31.4Q39.3 32.1 39.5 32.7Q39.8 33.2 40.2 33.5Q40.6 33.8 41.2 33.8ZM51.3 35.1L51.3 35.1Q50.5 35.1 49.8 34.8Q49.2 34.6 48.8 34.0Q48.5 33.5 48.4 32.7L48.4 32.7L49.9 32.7Q49.9 33.1 50.1 33.4Q50.3 33.6 50.6 33.7Q50.9 33.8 51.3 33.8L51.3 33.8Q51.7 33.8 52.0 33.7Q52.3 33.6 52.5 33.4Q52.7 33.2 52.7 32.9L52.7 32.9Q52.7 32.7 52.5 32.5Q52.4 32.3 52.1 32.2Q51.8 32.1 51.4 32.0L51.4 32.0L50.6 31.8Q49.7 31.6 49.2 31.1Q48.6 30.6 48.6 29.8L48.6 29.8Q48.6 29.2 49.0 28.7Q49.3 28.2 50.0 27.9Q50.6 27.6 51.4 27.6L51.4 27.6Q52.2 27.6 52.8 27.9Q53.4 28.2 53.7 28.7Q54.0 29.2 54.1 29.8L54.1 29.8L52.6 29.8Q52.6 29.4 52.2 29.1Q51.9 28.9 51.4 28.9L51.4 28.9Q51.0 28.9 50.7 29.0Q50.4 29.1 50.3 29.3Q50.2 29.5 50.2 29.7L50.2 29.7Q50.2 30.0 50.3 30.2Q50.5 30.3 50.8 30.5Q51.0 30.6 51.3 30.6L51.3 30.6L52.0 30.8Q52.4 30.9 52.8 31.1Q53.2 31.3 53.5 31.5Q53.8 31.8 54.0 32.1Q54.2 32.5 54.2 32.9L54.2 32.9Q54.2 33.6 53.8 34.1Q53.5 34.6 52.9 34.8Q52.2 35.1 51.3 35.1ZM60.2 29.0L57.9 29.0L57.9 27.7L63.9 27.7L63.9 29.0L61.7 29.0L61.7 35L60.2 35L60.2 29.0Z M76.3 35.1L76.3 35.1Q75.4 35.1 74.7 34.8Q74.0 34.4 73.6 33.8Q73.3 33.2 73.3 32.4L73.3 32.4L73.3 27.7L74.8 27.7L74.8 32.3Q74.8 32.7 74.9 33.1Q75.1 33.4 75.5 33.6Q75.8 33.8 76.3 33.8L76.3 33.8Q76.7 33.8 77.1 33.6Q77.4 33.4 77.6 33.1Q77.8 32.7 77.8 32.3L77.8 32.3L77.8 27.7L79.3 27.7L79.3 32.4Q79.3 33.2 78.9 33.8Q78.5 34.4 77.8 34.8Q77.2 35.1 76.3 35.1ZM86.3 35.1L86.3 35.1Q85.4 35.1 84.7 34.8Q84.1 34.6 83.7 34.0Q83.4 33.5 83.3 32.7L83.3 32.7L84.8 32.7Q84.8 33.1 85.0 33.4Q85.2 33.6 85.5 33.7Q85.8 33.8 86.2 33.8L86.2 33.8Q86.6 33.8 86.9 33.7Q87.2 33.6 87.4 33.4Q87.6 33.2 87.6 32.9L87.6 32.9Q87.6 32.7 87.4 32.5Q87.3 32.3 87.0 32.2Q86.7 32.1 86.3 32.0L86.3 32.0L85.5 31.8Q84.6 31.6 84.1 31.1Q83.5 30.6 83.5 29.8L83.5 29.8Q83.5 29.2 83.9 28.7Q84.3 28.2 84.9 27.9Q85.5 27.6 86.3 27.6L86.3 27.6Q87.1 27.6 87.7 27.9Q88.3 28.2 88.6 28.7Q89.0 29.2 89.0 29.8L89.0 29.8L87.5 29.8Q87.5 29.4 87.2 29.1Q86.8 28.9 86.3 28.9L86.3 28.9Q85.9 28.9 85.6 29.0Q85.3 29.1 85.2 29.3Q85.1 29.5 85.1 29.7L85.1 29.7Q85.1 30.0 85.2 30.2Q85.4 30.3 85.7 30.5Q85.9 30.6 86.2 30.6L86.2 30.6L86.9 30.8Q87.4 30.9 87.7 31.1Q88.1 31.3 88.4 31.5Q88.7 31.8 88.9 32.1Q89.1 32.5 89.1 32.9L89.1 32.9Q89.1 33.6 88.7 34.1Q88.4 34.6 87.8 34.8Q87.1 35.1 86.3 35.1ZM98.0 35L93.1 35L93.1 27.7L98.0 27.7L98.0 29.0L94.6 29.0L94.6 30.7L97.8 30.7L97.8 31.9L94.6 31.9L94.6 33.8L98.0 33.8L98.0 35ZM104.8 35L104.8 35L102.2 35L102.2 27.7L104.8 27.7Q105.9 27.7 106.7 28.2Q107.5 28.6 107.9 29.4Q108.3 30.2 108.3 31.4L108.3 31.4Q108.3 32.5 107.9 33.3Q107.5 34.1 106.7 34.6Q105.9 35 104.8 35ZM103.7 29.0L103.7 33.7L104.7 33.7Q105.4 33.7 105.9 33.5Q106.4 33.2 106.6 32.7Q106.8 32.2 106.8 31.4L106.8 31.4Q106.8 30.5 106.6 30.0Q106.3 29.5 105.9 29.3Q105.4 29.0 104.7 29.0L104.7 29.0L103.7 29.0Z M122.4 35L117.8 35L117.8 27.7L119.3 27.7L119.3 33.8L122.4 33.8L122.4 35ZM127.7 35L126.0 35L128.5 27.7L130.5 27.7L133.0 35L131.4 35L130.8 33.3L128.2 33.3L127.7 35ZM128.6 32.1L130.4 32.1L130.2 31.5Q130.0 30.8 129.8 30L129.8 30Q129.6 29.5 129.5 28.9L129.5 28.9Q129.3 29.5 129.2 30.0L129.2 30.0Q129.0 30.8 128.8 31.5L128.8 31.5L128.6 32.1ZM138.4 35L136.9 35L136.9 27.7L138.6 27.7L140.9 31.4Q141.1 31.7 141.2 32.0Q141.4 32.4 141.6 32.8L141.6 32.8Q141.7 33.0 141.8 33.2L141.8 33.2Q141.8 33.0 141.8 32.8L141.8 32.8Q141.7 32.3 141.7 31.9Q141.7 31.5 141.7 31.2L141.7 31.2L141.7 27.7L143.2 27.7L143.2 35L141.6 35L139.5 31.7Q139.2 31.3 139.0 30.9Q138.9 30.6 138.6 30.1L138.6 30.1Q138.5 29.9 138.3 29.6L138.3 29.6Q138.4 29.9 138.4 30.1L138.4 30.1Q138.4 30.6 138.4 31.0Q138.4 31.4 138.4 31.7L138.4 31.7L138.4 35ZM150.8 35.1L150.8 35.1Q149.7 35.1 149.0 34.6Q148.2 34.2 147.8 33.4Q147.3 32.5 147.3 31.4L147.3 31.4Q147.3 30.2 147.8 29.4Q148.2 28.5 149.0 28.1Q149.8 27.6 150.7 27.6L150.7 27.6Q151.3 27.6 151.9 27.8Q152.4 28.0 152.8 28.3Q153.2 28.6 153.5 29.1Q153.8 29.5 153.8 30.1L153.8 30.1L152.3 30.1Q152.2 29.8 152.1 29.6Q152.0 29.4 151.8 29.2Q151.6 29.1 151.3 29.0Q151.1 29.0 150.8 29.0L150.8 29.0Q150.2 29.0 149.8 29.2Q149.3 29.5 149.1 30.0Q148.9 30.6 148.9 31.4Q148.9 32.1 149.1 32.7Q149.3 33.2 149.8 33.5Q150.2 33.8 150.8 33.8L150.8 33.8Q151.3 33.8 151.7 33.6Q152.1 33.4 152.3 33.0L152.3 33.0Q152.5 32.7 152.5 32.3L152.5 32.3L150.9 32.3L150.9 31.1L153.9 31.1L153.9 32.0Q153.9 33.0 153.5 33.7Q153.1 34.4 152.4 34.7Q151.7 35.1 150.8 35.1ZM161.0 35.1L161.0 35.1Q160.1 35.1 159.5 34.8Q158.8 34.4 158.4 33.8Q158.0 33.2 158.0 32.4L158.0 32.4L158.0 27.7L159.5 27.7L159.5 32.3Q159.5 32.7 159.7 33.1Q159.9 33.4 160.3 33.6Q160.6 33.8 161.0 33.8L161.0 33.8Q161.5 33.8 161.8 33.6Q162.2 33.4 162.4 33.1Q162.6 32.7 162.6 32.3L162.6 32.3L162.6 27.7L164.1 27.7L164.1 32.4Q164.1 33.2 163.7 33.8Q163.3 34.4 162.6 34.8Q162.0 35.1 161.0 35.1ZM169.6 35L167.9 35L170.4 27.7L172.4 27.7L174.9 35L173.3 35L172.7 33.3L170.1 33.3L169.6 35ZM170.5 32.1L172.3 32.1L172.1 31.5Q171.9 30.8 171.7 30L171.7 30Q171.5 29.5 171.4 28.9L171.4 28.9Q171.3 29.5 171.1 30.0L171.1 30.0Q170.9 30.8 170.7 31.5L170.7 31.5L170.5 32.1ZM182.1 35.1L182.1 35.1Q181.0 35.1 180.3 34.6Q179.5 34.2 179.1 33.4Q178.6 32.5 178.6 31.4L178.6 31.4Q178.6 30.2 179.1 29.4Q179.5 28.5 180.3 28.1Q181.1 27.6 182.0 27.6L182.0 27.6Q182.6 27.6 183.2 27.8Q183.7 28.0 184.1 28.3Q184.5 28.6 184.8 29.1Q185.0 29.5 185.1 30.1L185.1 30.1L183.6 30.1Q183.5 29.8 183.4 29.6Q183.3 29.4 183.1 29.2Q182.9 29.1 182.6 29.0Q182.4 29.0 182.0 29.0L182.0 29.0Q181.5 29.0 181.1 29.2Q180.6 29.5 180.4 30.0Q180.1 30.6 180.1 31.4Q180.1 32.1 180.4 32.7Q180.6 33.2 181.1 33.5Q181.5 33.8 182.1 33.8L182.1 33.8Q182.6 33.8 183.0 33.6Q183.3 33.4 183.6 33.0L183.6 33.0Q183.7 32.7 183.8 32.3L183.8 32.3L182.2 32.3L182.2 31.1L185.2 31.1L185.2 32.0Q185.2 33.0 184.8 33.7Q184.4 34.4 183.7 34.7Q183.0 35.1 182.1 35.1ZM194.2 35L189.3 35L189.3 27.7L194.2 27.7L194.2 29.0L190.8 29.0L190.8 30.7L194.0 30.7L194.0 31.9L190.8 31.9L190.8 33.8L194.2 33.8L194.2 35ZM201.1 35.1L201.1 35.1Q200.2 35.1 199.6 34.8Q198.9 34.6 198.6 34.0Q198.2 33.5 198.2 32.7L198.2 32.7L199.6 32.7Q199.6 33.1 199.8 33.4Q200.0 33.6 200.3 33.7Q200.7 33.8 201.1 33.8L201.1 33.8Q201.5 33.8 201.8 33.7Q202.1 33.6 202.2 33.4Q202.4 33.2 202.4 32.9L202.4 32.9Q202.4 32.7 202.2 32.5Q202.1 32.3 201.8 32.2Q201.5 32.1 201.1 32.0L201.1 32.0L200.3 31.8Q199.4 31.6 198.9 31.1Q198.4 30.6 198.4 29.8L198.4 29.8Q198.4 29.2 198.7 28.7Q199.1 28.2 199.7 27.9Q200.3 27.6 201.1 27.6L201.1 27.6Q201.9 27.6 202.5 27.9Q203.1 28.2 203.4 28.7Q203.8 29.2 203.8 29.8L203.8 29.8L202.3 29.8Q202.3 29.4 202.0 29.1Q201.6 28.9 201.1 28.9L201.1 28.9Q200.7 28.9 200.4 29.0Q200.2 29.1 200.0 29.3Q199.9 29.5 199.9 29.7L199.9 29.7Q199.9 30.0 200.1 30.2Q200.2 30.3 200.5 30.5Q200.8 30.6 201.1 30.6L201.1 30.6L201.7 30.8Q202.2 30.9 202.6 31.1Q203.0 31.3 203.3 31.5Q203.6 31.8 203.7 32.1Q203.9 32.5 203.9 32.9L203.9 32.9Q203.9 33.6 203.6 34.1Q203.2 34.6 202.6 34.8Q202.0 35.1 201.1 35.1Z "/></g><clipPath id="satori_cp-id-2" clip-path="url(#satori_cp-id)"><path x="25" y="53" width="750" height="6" d="M28,53 h744 a3,3 0 0 1 3,3 v0 a3,3 0 0 1 -3,3 h-744 a3,3 0 0 1 -3,-3 v0 a3,3 0 0 1 3,-3"/></clipPath><mask id="satori_om-id-2"><rect x="25" y="53" width="750" height="6" fill="#fff" mask="url(#satori_om-id)"/></mask><path x="25" y="53" width="750" height="6" fill="rgba(255,255,255,0.05)" d="M28,53 h744 a3,3 0 0 1 3,3 v0 a3,3 0 0 1 -3,3 h-744 a3,3 0 0 1 -3,-3 v0 a3,3 0 0 1 3,-3" clip-path="url(#satori_cp-id)" mask="url(#satori_om-id)"/><mask id="satori_om-id-2-0"><rect x="25" y="53" width="750" height="6" fill="#fff" mask="url(#satori_om-id-2)"/></mask><rect x="25" y="53" width="750" height="6" fill="#3178c6" clip-path="url(#satori_cp-id-2)" mask="url(#satori_om-id-2)"/><mask id="satori_om-id-3"><rect x="25" y="75" width="750" height="16" fill="#fff" mask="url(#satori_om-id)"/></mask><mask id="satori_om-id-3-0"><rect x="25" y="75" width="120" height="16" fill="#fff" mask="url(#satori_om-id)"/></mask><mask id="satori_ms-id-3-0-0-0" maskUnits="userSpaceOnUse"><rect x="0" y="0" width="800" height="180" fill="#fff"/><path x="25" y="78" width="10" height="10" fill="#000"  stroke-width="0" d="M30,78 h0 a5,5 0 0 1 5,5 v0 a5,5 0 0 1 -5,5 h0 a5,5 0 0 1 -5,-5 v0 a5,5 0 0 1 5,-5" clip-path="url(#satori_cp-id)" mask="url(#satori_om-id)"/></mask><defs><filter id="satori_s-id-3-0-0-0" x="-90%" y="-90%" width="280%" height="280%"><feGaussianBlur stdDeviation="3" result="b"/><feFlood flood-color="#3178c640" in="SourceGraphic" result="f"/><feComposite in="f" in2="b" operator="in"/></filter></defs><g mask="url(#satori_ms-id-3-0-0-0)" filter="url(#satori_s-id-3-0-0-0)" opacity="1"><path x="25" y="78" width="10" height="10" fill="#fff" stroke="#fff" stroke-width="0" d="M30,78 h0 a5,5 0 0 1 5,5 v0 a5,5 0 0 1 -5,5 h0 a5,5 0 0 1 -5,-5 v0 a5,5 0 0 1 5,-5" clip-path="url(#satori_cp-id)" mask="url(#satori_om-id)"/></g><mask id="satori_om-id-3-0-0"><rect x="25" y="78" width="10" height="10" fill="#fff" mask="url(#satori_om-id)"/></mask><path x="25" y="78" width="10" height="10" fill="#3178c6" d="M30,78 h0 a5,5 0 0 1 5,5 v0 a5,5 0 0 1 -5,5 h0 a5,5 0 0 1 -5,-5 v0 a5,5 0 0 1 5,-5" clip-path="url(#satori_cp-id)" mask="url(#satori_om-id)"/><mask id="satori_om-id-3-0-1"><rect x="41" y="75" width="68" height="16" fill="#fff" mask="url(#satori_om-id)"/></mask><g mask="url(#satori_om-id)" clip-path="url(#satori_cp-id)"><path fill="#e0e0f0" d="M44.6 79.6L41.6 79.6L41.6 78.5L48.8 78.5L48.8 79.6L45.8 79.6L45.8 88L44.6 88L44.6 79.6ZM50.3 90.6L50.3 90.6L50.6 89.6L50.7 89.6Q51.0 89.7 51.3 89.7Q51.6 89.6 51.8 89.4Q52.1 89.1 52.2 88.6L52.2 88.6L52.4 88.0L49.7 80.9L51.0 80.9L52.5 85.1Q52.7 85.8 52.9 86.4L52.9 86.4Q53.0 86.7 53.0 87.0L53.0 87.0Q53.1 86.7 53.2 86.4L53.2 86.4Q53.4 85.8 53.6 85.1L53.6 85.1L55.1 80.9L56.4 80.9L53.2 89.1Q53.0 89.6 52.7 90.0Q52.4 90.4 52.0 90.5Q51.6 90.7 51.1 90.7L51.1 90.7Q50.8 90.7 50.6 90.7Q50.4 90.6 50.3 90.6ZM58.8 90.7L57.7 90.7L57.7 80.9L58.8 80.9L58.8 82.0L58.9 82.0Q59.1 81.8 59.3 81.6Q59.5 81.3 59.9 81.0Q60.3 80.8 61.0 80.8L61.0 80.8Q61.9 80.8 62.6 81.3Q63.2 81.7 63.6 82.5Q64.0 83.3 64.0 84.5L64.0 84.5Q64.0 85.6 63.6 86.4Q63.2 87.3 62.6 87.7Q61.9 88.2 61.0 88.2L61.0 88.2Q60.3 88.2 59.9 87.9Q59.5 87.7 59.3 87.4Q59.1 87.1 58.9 86.9L58.9 86.9L58.8 86.9L58.8 90.7ZM60.8 87.1L60.8 87.1Q61.5 87.1 61.9 86.8Q62.4 86.4 62.6 85.8Q62.8 85.2 62.8 84.5L62.8 84.5Q62.8 83.7 62.6 83.1Q62.4 82.5 61.9 82.2Q61.5 81.8 60.8 81.8L60.8 81.8Q60.2 81.8 59.7 82.2Q59.3 82.5 59.1 83.1Q58.8 83.7 58.8 84.5L58.8 84.5Q58.8 85.2 59.1 85.8Q59.3 86.5 59.7 86.8Q60.2 87.1 60.8 87.1ZM68.6 88.2L68.6 88.2Q67.6 88.2 66.9 87.7Q66.1 87.2 65.7 86.4Q65.3 85.6 65.3 84.5Q65.3 83.4 65.7 82.6Q66.1 81.8 66.8 81.3Q67.5 80.8 68.5 80.8L68.5 80.8Q69.1 80.8 69.6 81.0Q70.2 81.2 70.6 81.6Q71.1 82.0 71.3 82.7Q71.6 83.4 71.6 84.4L71.6 84.4L71.6 84.8L66.5 84.8Q66.5 85.5 66.7 86.0L66.7 86.0Q67.0 86.6 67.5 86.9Q68.0 87.1 68.7 87.1L68.7 87.1Q69.1 87.1 69.4 87.0Q69.8 86.9 70.0 86.7Q70.3 86.4 70.4 86.0L70.4 86.0L71.5 86.3Q71.3 86.9 70.9 87.3Q70.5 87.7 70.0 87.9Q69.4 88.2 68.6 88.2ZM66.5 83.9L66.5 83.9L70.4 83.9Q70.4 83.4 70.2 83.0L70.2 83.0Q70.0 82.4 69.6 82.1Q69.2 81.8 68.5 81.8Q67.9 81.8 67.4 82.1Q67.0 82.5 66.7 83.0L66.7 83.0Q66.5 83.4 66.5 83.9ZM76.4 88.2L76.4 88.2Q75.4 88.2 74.6 87.8Q73.9 87.5 73.5 86.9Q73.0 86.3 73.0 85.5L73.0 85.5L74.2 85.5Q74.3 86.1 74.6 86.4Q74.9 86.7 75.4 86.9Q75.9 87.1 76.4 87.1L76.4 87.1Q77.0 87.1 77.6 86.9Q78.1 86.7 78.4 86.3Q78.7 85.9 78.7 85.4L78.7 85.4Q78.7 84.9 78.4 84.7Q78.2 84.4 77.7 84.2Q77.3 84.0 76.8 83.9L76.8 83.9L75.7 83.5Q74.5 83.2 73.9 82.6Q73.2 82.0 73.2 81.1L73.2 81.1Q73.2 80.3 73.7 79.7Q74.1 79.1 74.8 78.7Q75.6 78.4 76.5 78.4L76.5 78.4Q77.4 78.4 78.1 78.7Q78.9 79.1 79.3 79.6Q79.7 80.2 79.7 80.9L79.7 80.9L78.5 80.9Q78.5 80.2 77.9 79.9Q77.3 79.5 76.5 79.5L76.5 79.5Q75.8 79.5 75.4 79.7Q74.9 79.9 74.7 80.2Q74.4 80.6 74.4 81.0L74.4 81.0Q74.4 81.5 74.7 81.8Q75.0 82.1 75.5 82.3Q75.9 82.5 76.2 82.5L76.2 82.5L77.2 82.8Q77.5 82.9 78.0 83.1Q78.5 83.3 78.9 83.6Q79.3 83.9 79.6 84.3Q79.8 84.8 79.8 85.4L79.8 85.4Q79.8 86.2 79.4 86.8Q79.0 87.4 78.3 87.8Q77.5 88.2 76.4 88.2ZM84.5 88.2L84.5 88.2Q83.5 88.2 82.8 87.7Q82.1 87.2 81.6 86.4Q81.2 85.6 81.2 84.5L81.2 84.5Q81.2 83.4 81.6 82.6Q82.1 81.7 82.8 81.3Q83.5 80.8 84.5 80.8L84.5 80.8Q85.0 80.8 85.4 80.9Q85.9 81.1 86.3 81.3Q86.7 81.6 86.9 81.9Q87.2 82.3 87.3 82.8L87.3 82.8L86.2 83.1Q86.2 82.8 86.0 82.6Q85.9 82.4 85.6 82.2Q85.4 82.0 85.1 81.9Q84.8 81.8 84.5 81.8L84.5 81.8Q83.8 81.8 83.3 82.2Q82.8 82.6 82.6 83.2Q82.4 83.8 82.4 84.5L82.4 84.5Q82.4 85.2 82.6 85.8Q82.8 86.4 83.3 86.8Q83.8 87.1 84.5 87.1L84.5 87.1Q84.8 87.1 85.1 87.0Q85.4 86.9 85.7 86.8Q85.9 86.6 86.0 86.3Q86.2 86.1 86.3 85.8L86.3 85.8L87.4 86.1Q87.2 86.6 87.0 87.0Q86.7 87.4 86.3 87.6Q85.9 87.9 85.5 88.0Q85.0 88.2 84.5 88.2ZM90.1 88L89.0 88L89.0 80.9L90.1 80.9L90.1 82.0L90.2 82.0Q90.4 81.5 90.9 81.1Q91.4 80.8 92.0 80.8L92.0 80.8Q92.2 80.8 92.3 80.8Q92.5 80.8 92.6 80.8L92.6 80.8L92.6 82.0Q92.6 82.0 92.4 81.9Q92.1 81.9 91.9 81.9L91.9 81.9Q91.4 81.9 91.0 82.1Q90.6 82.3 90.4 82.7Q90.1 83.1 90.1 83.6L90.1 83.6L90.1 88ZM95.0 88L93.9 88L93.9 80.9L95.0 80.9L95.0 88ZM94.5 79.7L94.5 79.7Q94.2 79.7 93.9 79.5Q93.7 79.3 93.7 79.0L93.7 79.0Q93.7 78.7 93.9 78.4Q94.2 78.2 94.5 78.2L94.5 78.2Q94.8 78.2 95.0 78.4Q95.3 78.7 95.3 79.0L95.3 79.0Q95.3 79.3 95.0 79.5Q94.8 79.7 94.5 79.7ZM98.2 90.7L97.0 90.7L97.0 80.9L98.2 80.9L98.2 82.0L98.3 82.0Q98.4 81.8 98.6 81.6Q98.8 81.3 99.2 81.0Q99.6 80.8 100.3 80.8L100.3 80.8Q101.2 80.8 101.9 81.3Q102.6 81.7 103.0 82.5Q103.3 83.3 103.3 84.5L103.3 84.5Q103.3 85.6 103.0 86.4Q102.6 87.3 101.9 87.7Q101.2 88.2 100.3 88.2L100.3 88.2Q99.7 88.2 99.3 87.9Q98.8 87.7 98.6 87.4Q98.4 87.1 98.3 86.9L98.3 86.9L98.2 86.9L98.2 90.7ZM100.2 87.1L100.2 87.1Q100.8 87.1 101.3 86.8Q101.7 86.4 102.0 85.8Q102.2 85.2 102.2 84.5L102.2 84.5Q102.2 83.7 102.0 83.1Q101.7 82.5 101.3 82.2Q100.8 81.8 100.2 81.8L100.2 81.8Q99.5 81.8 99.1 82.2Q98.6 82.5 98.4 83.1Q98.2 83.7 98.2 84.5L98.2 84.5Q98.2 85.2 98.4 85.8Q98.6 86.5 99.1 86.8Q99.5 87.1 100.2 87.1ZM106.3 80.9L107.8 80.9L107.8 81.9L106.3 81.9L106.3 86.2Q106.3 86.6 106.5 86.9Q106.7 87.1 107.2 87.1L107.2 87.1Q107.3 87.1 107.5 87.0Q107.6 87.0 107.8 87.0L107.8 87.0L108.0 88.0Q107.8 88.0 107.6 88.1Q107.4 88.1 107.1 88.1L107.1 88.1Q106.2 88.1 105.7 87.6Q105.2 87.1 105.2 86.2L105.2 86.2L105.2 81.9L104.1 81.9L104.1 80.9L105.2 80.9L105.2 79.2L106.3 79.2L106.3 80.9Z "/></g><mask id="satori_om-id-3-0-2"><rect x="115" y="77" width="30" height="13" fill="#fff" mask="url(#satori_om-id)"/></mask><g mask="url(#satori_om-id)" clip-path="url(#satori_cp-id)"><path fill="#6a6a8a" d="M117.3 80.0L118.5 80.0L118.5 88L117.5 88L117.5 80.9L117.4 80.9L115.5 82.4L115.5 81.3L117.3 80.0ZM122.9 88.1L122.9 88.1Q122.1 88.1 121.4 87.6Q120.8 87.1 120.5 86.2Q120.1 85.3 120.1 84.0L120.1 84.0Q120.1 82.7 120.5 81.8Q120.8 80.9 121.4 80.4Q122.1 79.9 122.9 79.9L122.9 79.9Q123.8 79.9 124.5 80.4Q125.1 80.9 125.4 81.8Q125.8 82.7 125.8 84.0L125.8 84.0Q125.8 85.3 125.4 86.2Q125.1 87.1 124.5 87.6Q123.8 88.1 122.9 88.1ZM122.9 87.2L122.9 87.2Q123.5 87.2 123.9 86.8Q124.3 86.5 124.6 85.7Q124.8 85.0 124.8 84.0L124.8 84.0Q124.8 83.0 124.6 82.3Q124.3 81.5 123.9 81.2Q123.5 80.8 122.9 80.8L122.9 80.8Q122.4 80.8 122.0 81.2Q121.5 81.5 121.3 82.3Q121.1 83.0 121.1 84.0L121.1 84.0Q121.1 85.0 121.3 85.7Q121.5 86.5 122.0 86.8Q122.4 87.2 122.9 87.2ZM129.9 88.1L129.9 88.1Q129.0 88.1 128.4 87.6Q127.7 87.1 127.4 86.2Q127.1 85.3 127.1 84.0L127.1 84.0Q127.1 82.7 127.4 81.8Q127.7 80.9 128.4 80.4Q129.0 79.9 129.9 79.9L129.9 79.9Q130.8 79.9 131.4 80.4Q132.0 80.9 132.4 81.8Q132.7 82.7 132.7 84.0L132.7 84.0Q132.7 85.3 132.4 86.2Q132.0 87.1 131.4 87.6Q130.8 88.1 129.9 88.1ZM129.9 87.2L129.9 87.2Q130.5 87.2 130.9 86.8Q131.3 86.5 131.5 85.7Q131.7 85.0 131.7 84.0L131.7 84.0Q131.7 83.0 131.5 82.3Q131.3 81.5 130.9 81.2Q130.5 80.8 129.9 80.8L129.9 80.8Q129.3 80.8 128.9 81.2Q128.5 81.5 128.3 82.3Q128.1 83.0 128.1 84.0L128.1 84.0Q128.1 85.0 128.3 85.7Q128.5 86.5 128.9 86.8Q129.3 87.2 129.9 87.2ZM136.2 83.5L136.2 83.5Q135.7 83.5 135.3 83.3Q134.9 83.1 134.8 82.7Q134.6 82.3 134.6 81.9L134.6 81.9L134.6 81.5Q134.6 81.0 134.8 80.7Q135.0 80.3 135.3 80.1Q135.7 79.9 136.2 79.9L136.2 79.9Q136.7 79.9 137.0 80.1Q137.4 80.3 137.5 80.7Q137.7 81.0 137.7 81.5L137.7 81.5L137.7 81.9Q137.7 82.3 137.5 82.7Q137.4 83.1 137.0 83.3Q136.7 83.5 136.2 83.5ZM136.2 82.8L136.2 82.8Q136.6 82.8 136.7 82.6Q136.9 82.3 136.9 81.9L136.9 81.9L136.9 81.5Q136.9 81.1 136.7 80.9Q136.6 80.6 136.2 80.6L136.2 80.6Q135.8 80.6 135.6 80.9Q135.4 81.1 135.4 81.5L135.4 81.5L135.4 81.9Q135.4 82.3 135.6 82.6Q135.7 82.8 136.2 82.8ZM141.4 88.2L141.4 88.2Q140.8 88.2 140.5 87.9Q140.1 87.7 140.0 87.3Q139.8 87.0 139.8 86.5L139.8 86.5L139.8 86.1Q139.8 85.7 140.0 85.3Q140.1 84.9 140.5 84.7Q140.9 84.5 141.4 84.5L141.4 84.5Q141.9 84.5 142.2 84.7Q142.6 84.9 142.7 85.3Q142.9 85.7 142.9 86.1L142.9 86.1L142.9 86.5Q142.9 87.0 142.7 87.3Q142.6 87.7 142.2 87.9Q141.9 88.2 141.4 88.2ZM141.4 87.5L141.4 87.5Q141.8 87.5 141.9 87.2Q142.1 86.9 142.1 86.5L142.1 86.5L142.1 86.1Q142.1 85.8 141.9 85.5Q141.8 85.2 141.4 85.2L141.4 85.2Q141.0 85.2 140.8 85.5Q140.6 85.8 140.6 86.1L140.6 86.1L140.6 86.5Q140.6 86.9 140.8 87.2Q140.9 87.5 141.4 87.5ZM136.4 88L135.5 88L141.0 80.0L141.9 80.0L136.4 88Z "/></g></svg>